<?xml version="1.0" standalone="no"?>
<svg viewBox="0 0 200 200" xmlns="http://www.w3.org/2000/svg">
  <path fill="#52071C" d="M36.7,-47.6C50.6,-48.1,67.1,-43.1,69.6,-33.1C72.2,-23,61,-8,59.4,9.1C57.8,26.2,65.9,45.2,60.7,54.2C55.4,63.2,36.7,62.2,22.7,57.1C8.7,52,-0.6,42.8,-14.3,41.8C-27.9,40.9,-46,48.2,-49.7,43.4C-53.4,38.6,-42.7,21.6,-42.1,7.7C-41.6,-6.2,-51.1,-17,-50.7,-25.3C-50.2,-33.7,-39.7,-39.6,-29.6,-40.8C-19.5,-42,-9.7,-38.5,0.8,-39.8C11.4,-41,22.8,-47.1,36.7,-47.6Z" transform="translate(100 100)" />
</svg>
