<?xml version="1.0" standalone="no"?>
<svg viewBox="0 0 200 200" xmlns="http://www.w3.org/2000/svg">
  <path fill="#52071C" d="M29.8,-56C34.3,-43.6,30.4,-27.9,33.5,-16.6C36.5,-5.4,46.3,1.3,48.8,9.3C51.2,17.3,46.2,26.5,40.1,36.2C34,45.9,26.7,56,18.6,54.4C10.4,52.8,1.4,39.4,-7.2,33C-15.8,26.7,-24,27.3,-32,24.3C-40,21.3,-47.8,14.6,-54.8,4.3C-61.8,-6,-68,-20,-62,-26.3C-56,-32.7,-37.7,-31.5,-25.3,-40.3C-12.9,-49.1,-6.5,-68,3.1,-72.9C12.7,-77.7,25.4,-68.5,29.8,-56Z" transform="translate(100 100)" />
</svg>
