<?xml version="1.0" standalone="no"?>
<svg viewBox="0 0 200 200" xmlns="http://www.w3.org/2000/svg">
  <path fill="#52071C" d="M39,-64.6C47.4,-55.2,48.9,-39.1,55.1,-25.3C61.2,-11.4,72,0.2,69.2,8.9C66.3,17.6,49.8,23.2,37.7,27C25.6,30.8,17.9,32.7,10,35.9C2.1,39,-5.9,43.3,-16,44.8C-26,46.2,-37.9,44.7,-49.2,38.7C-60.5,32.7,-71.1,22.2,-76.4,8.8C-81.7,-4.6,-81.8,-21,-71.3,-27.7C-60.7,-34.5,-39.5,-31.5,-25.9,-38.5C-12.2,-45.5,-6.1,-62.4,4.6,-69.5C15.3,-76.6,30.5,-74,39,-64.6Z" transform="translate(100 100)" />
</svg>
